# xmcd
#
# Track frame offsets:
#	150
#	14335
#	35713
#
# Disc length: 695 seconds
#
# Revision: 0
# Processed by: cddbd v1.5.2PL0 Copyright (c) Steve Scherf et al.
# Submitted via: audiograbber 1.83.01
#
DISCID=1e02b503
DTITLE=Down Below - Zur Sonne - Zur Freiheit [CD2) (Bonus Disc)
DYEAR=2013
DGENRE=Rock
TTITLE0=Meilenstein (Studio akustisch)
TTITLE1=Alle Deine Wege (Studio akustisch)
TTITLE2=Diese Tage (Studio akustisch, unveröffentl. Track)
EXTD=
EXTT0=
EXTT1=
EXTT2=
PLAYORDER=
